<svg width="31" height="26" viewBox="0 0 31 26" fill="none" xmlns="http://www.w3.org/2000/svg">
<path d="M0.333252 7.61667L14.8614 15.3125C15.0072 15.3897 15.169 15.43 15.3333 15.43C15.4975 15.43 15.6593 15.3897 15.8051 15.3125L30.3333 7.61806V20.9861C30.3333 22.1391 29.9002 23.2484 29.1228 24.0864C28.3454 24.9245 27.2825 25.4278 26.1523 25.4931L25.9014 25.5H4.76507C3.63306 25.5001 2.54394 25.059 1.72112 24.2671C0.898298 23.4753 0.404159 22.3928 0.34007 21.2417L0.333252 20.9861V7.61667ZM4.76507 0.5H25.9014C27.0334 0.499925 28.1226 0.941047 28.9454 1.73288C29.7682 2.52471 30.2623 3.60721 30.3264 4.75833L30.3333 5.01389V5.26944L15.3333 13.2139L0.333252 5.26944V5.01389C0.333178 3.86092 0.76628 2.75163 1.54371 1.91357C2.32115 1.07551 3.38397 0.57222 4.51416 0.506945L4.76507 0.5H25.9014H4.76507Z" fill="white"/>
</svg>
