<svg width="32" height="33" viewBox="0 0 32 33" fill="none" xmlns="http://www.w3.org/2000/svg">
<path d="M0 16.5C0 25.3366 7.16344 32.5 16 32.5C24.8366 32.5 32 25.3366 32 16.5C32 7.66344 24.8366 0.5 16 0.5C7.16344 0.5 0 7.66344 0 16.5Z" fill="white"/>
<path d="M16 9.69995C18.2 9.69995 18.5 9.69995 19.4 9.69995C20.2 9.69995 20.6 9.89995 20.9 9.99995C21.3 10.2 21.6 10.3 21.9 10.6C22.2 10.9 22.4 11.2 22.5 11.6C22.6 11.9 22.7 12.3 22.8 13.1C22.8 14 22.8 14.2 22.8 16.5C22.8 18.8 22.8 19 22.8 19.9C22.8 20.7 22.6 21.1 22.5 21.4C22.3 21.8 22.2 22.1 21.9 22.4C21.6 22.7 21.3 22.9 20.9 23C20.6 23.1 20.2 23.2 19.4 23.3C18.5 23.3 18.3 23.3 16 23.3C13.7 23.3 13.5 23.3 12.6 23.3C11.8 23.3 11.4 23.1 11.1 23C10.7 22.8 10.4 22.7 10.1 22.4C9.79995 22.1 9.59995 21.8 9.49995 21.4C9.39995 21.1 9.29995 20.7 9.19995 19.9C9.19995 19 9.19995 18.8 9.19995 16.5C9.19995 14.2 9.19995 14 9.19995 13.1C9.19995 12.3 9.39995 11.9 9.49995 11.6C9.69995 11.2 9.79995 10.9 10.1 10.6C10.4 10.3 10.7 10.1 11.1 9.99995C11.4 9.89995 11.8 9.79995 12.6 9.69995C13.5 9.69995 13.8 9.69995 16 9.69995ZM16 8.19995C13.7 8.19995 13.5 8.19995 12.6 8.19995C11.7 8.19995 11.1 8.39995 10.6 8.59995C10.1 8.79995 9.59995 9.09995 9.09995 9.59995C8.59995 10.1 8.39995 10.5 8.09995 11.1C7.89995 11.6 7.79995 12.2 7.69995 13.1C7.69995 14 7.69995 14.3 7.69995 16.5C7.69995 18.8 7.69995 19 7.69995 19.9C7.69995 20.8 7.89995 21.4 8.09995 21.9C8.29995 22.4 8.59995 22.9 9.09995 23.4C9.59995 23.9 9.99995 24.1 10.6 24.4C11.1 24.6 11.7 24.6999 12.6 24.7999C13.5 24.7999 13.8 24.7999 16 24.7999C18.2 24.7999 18.5 24.7999 19.4 24.7999C20.3 24.7999 20.9 24.6 21.4 24.4C21.9 24.2 22.4 23.9 22.9 23.4C23.4 22.9 23.6 22.5 23.9 21.9C24.1 21.4 24.1999 20.8 24.2999 19.9C24.2999 19 24.2999 18.7 24.2999 16.5C24.2999 14.3 24.2999 14 24.2999 13.1C24.2999 12.2 24.1 11.6 23.9 11.1C23.7 10.6 23.4 10.1 22.9 9.59995C22.4 9.09995 22 8.89995 21.4 8.59995C20.9 8.39995 20.3 8.29995 19.4 8.19995C18.5 8.19995 18.3 8.19995 16 8.19995Z" fill="#161C2D"/>
<path d="M16 12.2C13.6 12.2 11.7 14.1 11.7 16.5C11.7 18.9 13.6 20.8 16 20.8C18.4 20.8 20.3 18.9 20.3 16.5C20.3 14.1 18.4 12.2 16 12.2ZM16 19.3C14.5 19.3 13.2 18.1 13.2 16.5C13.2 15 14.4 13.7 16 13.7C17.5 13.7 18.8 14.9 18.8 16.5C18.8 18 17.5 19.3 16 19.3Z" fill="#161C2D"/>
<path d="M20.4 13.1C20.9522 13.1 21.4 12.6522 21.4 12.1C21.4 11.5477 20.9522 11.1 20.4 11.1C19.8477 11.1 19.4 11.5477 19.4 12.1C19.4 12.6522 19.8477 13.1 20.4 13.1Z" fill="#161C2D"/>
</svg>
