<svg width="31" height="26" viewBox="0 0 31 26" fill="none" xmlns="http://www.w3.org/2000/svg">
<path d="M6.36658 11.3273C8.76659 15.2557 12.6333 18.4622 17.3499 20.475L21.0166 17.4212C21.4666 17.0464 22.1333 16.9214 22.7166 17.088C24.5833 17.6016 26.5999 17.8792 28.6666 17.8792C29.5833 17.8792 30.3333 18.5039 30.3333 19.2674V24.1119C30.3333 24.8753 29.5833 25.5 28.6666 25.5C13.0166 25.5 0.333252 14.9364 0.333252 1.902C0.333252 1.13853 1.08325 0.513881 1.99992 0.513881H7.83325C8.74992 0.513881 9.49992 1.13853 9.49992 1.902C9.49992 3.63715 9.83325 5.30289 10.4499 6.85758C10.6333 7.34342 10.4999 7.88479 10.0333 8.27346L6.36658 11.3273ZM28.9333 1.47168L27.7499 0.5L16.9999 9.24514V3.29012H15.3333V11.6188H25.3333V10.2307H18.4166L28.9333 1.47168Z" fill="white"/>
</svg>
